<svg id="Layer_1" data-name="Layer 1" xmlns="http://www.w3.org/2000/svg" viewBox="0 0 500 500"><defs><style>.cls-1{fill:#fff;}.cls-2{fill:#d73939;}.cls-3{fill:none;stroke:#000;stroke-linecap:round;stroke-linejoin:round;stroke-width:20px;}.cls-4{opacity:0.15;}</style></defs><title>umbrella</title><path class="cls-1" d="M469.29,377.54C518.8,255.63,470.61,113.22,352.59,48S88.33,17.61,11.41,124.36c29.41,32.74,14.23,61.73,14.23,61.73h0c.81,1.16,1.71,2.31,2.54,3.47l1.55-.64c15.34,3.89,31.47,11.5,46.56,22.71,29.68,22.05,47.22,52,47.53,76.69,3,2.3,5.84,4.62,8.86,6.87,19.32-5.13,47.63-.16,74.94,14.95s46.47,36.32,52.46,55.37c3.5,1.35,7,2.77,10.5,4,21.08-12.91,55.8-14,90.3-.56,17.52,6.82,32.55,16.43,44,27.36l.29,1.68c1.43.08,2.87.21,4.29.28h0S425.92,370,469.29,377.54Z"/><path class="cls-2" d="M352.59,48c-118-65.25-264.26-30.35-341.18,76.4,29.41,32.74,14.23,61.73,14.23,61.73C99.31,76.18,231.62,24.7,357,50.54,355.51,49.69,354.08,48.79,352.59,48Z"/><path class="cls-2" d="M352.59,48c118,65.26,166.21,207.67,116.7,329.57-43.37-7.49-59.84,20.78-59.84,20.78,53.92-120.84,27.16-260.26-61.38-352.7C349.57,46.4,351.09,47.14,352.59,48Z"/><path class="cls-2" d="M207.62,310.14c27.28,15.07,46.51,36.36,52.48,55.42,1.46.57,2.91,1.19,4.37,1.75C361.71,175.5,352.59,48,352.59,48S239.72,108.05,129,292.39c1.24.94,2.55,1.84,3.8,2.78C152.1,290.08,180.35,295.06,207.62,310.14Z"/><line class="cls-3" x1="207.62" y1="310.14" x2="110.95" y2="484.98"/><path class="cls-4" d="M469.29,377.54C513.6,268.44,479.61,143,387.4,71c26.47,98.89,32.48,240.8-122.79,296.23,2,.78,4,1.58,6,2.31,21.08-12.92,55.8-14,90.3-.57,17.52,6.82,32.55,16.43,44,27.35l.29,1.69c1.43.08,2.87.21,4.29.28h0S425.92,370,469.29,377.54Z"/><path class="cls-3" d="M469.29,377.54C518.8,255.63,470.61,113.22,352.59,48S88.33,17.61,11.41,124.36c29.41,32.74,14.23,61.73,14.23,61.73h0c.81,1.16,1.71,2.31,2.54,3.47l1.55-.64c15.34,3.89,31.47,11.5,46.56,22.71,29.68,22.05,47.22,52,47.53,76.69,3,2.3,5.84,4.62,8.86,6.87,19.32-5.13,47.63-.16,74.94,14.95s46.47,36.32,52.46,55.37c3.5,1.35,7,2.77,10.5,4,21.08-12.91,55.8-14,90.3-.56,17.52,6.82,32.55,16.43,44,27.36l.29,1.68c1.43.08,2.87.21,4.29.28h0S425.92,370,469.29,377.54Z"/><path class="cls-3" d="M352.59,48c-118-65.25-264.26-30.35-341.18,76.4,29.41,32.74,14.23,61.73,14.23,61.73C99.31,76.18,231.62,24.7,357,50.54,355.51,49.69,354.08,48.79,352.59,48Z"/><path class="cls-3" d="M352.59,48c118,65.26,166.21,207.67,116.7,329.57-43.37-7.49-59.84,20.78-59.84,20.78,53.92-120.84,27.16-260.26-61.38-352.7C349.57,46.4,351.09,47.14,352.59,48Z"/><path class="cls-3" d="M207.62,310.14c27.28,15.07,46.51,36.36,52.48,55.42,1.46.57,2.91,1.19,4.37,1.75C361.71,175.5,352.59,48,352.59,48S239.72,108.05,129,292.39c1.24.94,2.55,1.84,3.8,2.78C152.1,290.08,180.35,295.06,207.62,310.14Z"/></svg>